<mxfile host="app.diagrams.net" modified="2023-04-19T04:35:05.764Z" agent="Mozilla/5.0 (Windows NT 10.0; Win64; x64) AppleWebKit/537.36 (KHTML, like Gecko) Chrome/111.0.0.0 Safari/537.36" etag="FvUg511E_IbUQiKz_sTZ" version="21.1.9" type="device">
  <diagram name="Page-1" id="5TuCCYAGfM9SqrPM70GD">
    <mxGraphModel dx="1050" dy="549" grid="0" gridSize="10" guides="1" tooltips="1" connect="1" arrows="1" fold="1" page="1" pageScale="1" pageWidth="1100" pageHeight="850" math="0" shadow="0">
      <root>
        <mxCell id="0" />
        <mxCell id="1" parent="0" />
        <mxCell id="7T8qWPSi5KXuXGnWqWve-1" value="MRI IMAGES&lt;br&gt;Of Brain Tumor" style="shape=cylinder3;whiteSpace=wrap;html=1;boundedLbl=1;backgroundOutline=1;size=15;labelBackgroundColor=none;fillColor=#09555B;strokeColor=#BAC8D3;fontColor=#EEEEEE;" vertex="1" parent="1">
          <mxGeometry x="56" y="68" width="98" height="115" as="geometry" />
        </mxCell>
        <mxCell id="7T8qWPSi5KXuXGnWqWve-2" value="" style="endArrow=classic;html=1;rounded=0;labelBackgroundColor=none;fontColor=default;strokeColor=#0B4D6A;" edge="1" parent="1">
          <mxGeometry width="50" height="50" relative="1" as="geometry">
            <mxPoint x="154" y="134" as="sourcePoint" />
            <mxPoint x="328" y="132" as="targetPoint" />
          </mxGeometry>
        </mxCell>
        <mxCell id="7T8qWPSi5KXuXGnWqWve-3" style="edgeStyle=orthogonalEdgeStyle;rounded=0;orthogonalLoop=1;jettySize=auto;html=1;labelBackgroundColor=none;fontColor=default;strokeColor=#0B4D6A;" edge="1" parent="1" source="7T8qWPSi5KXuXGnWqWve-4">
          <mxGeometry relative="1" as="geometry">
            <mxPoint x="433.5" y="159.39999389648438" as="targetPoint" />
          </mxGeometry>
        </mxCell>
        <mxCell id="7T8qWPSi5KXuXGnWqWve-4" value="Gaussian Filter" style="rounded=1;whiteSpace=wrap;html=1;labelBackgroundColor=none;fillColor=#09555B;strokeColor=#BAC8D3;fontColor=#EEEEEE;" vertex="1" parent="1">
          <mxGeometry x="364" y="218" width="139" height="39" as="geometry" />
        </mxCell>
        <mxCell id="7T8qWPSi5KXuXGnWqWve-5" value="Remove Noise" style="rounded=0;whiteSpace=wrap;html=1;labelBackgroundColor=none;fillColor=#09555B;strokeColor=#BAC8D3;fontColor=#EEEEEE;" vertex="1" parent="1">
          <mxGeometry x="331" y="100" width="205" height="57" as="geometry" />
        </mxCell>
        <mxCell id="7T8qWPSi5KXuXGnWqWve-6" value="" style="endArrow=classic;html=1;rounded=0;labelBackgroundColor=none;fontColor=default;strokeColor=#0B4D6A;" edge="1" parent="1">
          <mxGeometry width="50" height="50" relative="1" as="geometry">
            <mxPoint x="536" y="132" as="sourcePoint" />
            <mxPoint x="658" y="87" as="targetPoint" />
          </mxGeometry>
        </mxCell>
        <mxCell id="7T8qWPSi5KXuXGnWqWve-7" value="" style="endArrow=classic;html=1;rounded=0;labelBackgroundColor=none;fontColor=default;strokeColor=#0B4D6A;" edge="1" parent="1">
          <mxGeometry width="50" height="50" relative="1" as="geometry">
            <mxPoint x="536" y="133" as="sourcePoint" />
            <mxPoint x="653" y="194" as="targetPoint" />
          </mxGeometry>
        </mxCell>
        <mxCell id="7T8qWPSi5KXuXGnWqWve-8" style="edgeStyle=orthogonalEdgeStyle;rounded=0;orthogonalLoop=1;jettySize=auto;html=1;labelBackgroundColor=none;fontColor=default;strokeColor=#0B4D6A;" edge="1" parent="1" source="7T8qWPSi5KXuXGnWqWve-9">
          <mxGeometry relative="1" as="geometry">
            <mxPoint x="927.5999755859375" y="288.1999816894531" as="targetPoint" />
          </mxGeometry>
        </mxCell>
        <mxCell id="7T8qWPSi5KXuXGnWqWve-9" value="Train&amp;nbsp;&lt;br&gt;Images" style="shape=cylinder3;whiteSpace=wrap;html=1;boundedLbl=1;backgroundOutline=1;size=15;labelBackgroundColor=none;fillColor=#09555B;strokeColor=#BAC8D3;fontColor=#EEEEEE;" vertex="1" parent="1">
          <mxGeometry x="661" y="35" width="88" height="89" as="geometry" />
        </mxCell>
        <mxCell id="7T8qWPSi5KXuXGnWqWve-10" style="edgeStyle=orthogonalEdgeStyle;rounded=0;orthogonalLoop=1;jettySize=auto;html=1;entryX=0.5;entryY=0;entryDx=0;entryDy=0;labelBackgroundColor=none;fontColor=default;strokeColor=#0B4D6A;" edge="1" parent="1" source="7T8qWPSi5KXuXGnWqWve-11" target="7T8qWPSi5KXuXGnWqWve-15">
          <mxGeometry relative="1" as="geometry" />
        </mxCell>
        <mxCell id="7T8qWPSi5KXuXGnWqWve-11" value="Test&amp;nbsp;&lt;br&gt;Images" style="shape=cylinder3;whiteSpace=wrap;html=1;boundedLbl=1;backgroundOutline=1;size=15;labelBackgroundColor=none;fillColor=#09555B;strokeColor=#BAC8D3;fontColor=#EEEEEE;" vertex="1" parent="1">
          <mxGeometry x="655" y="164" width="88" height="79" as="geometry" />
        </mxCell>
        <mxCell id="7T8qWPSi5KXuXGnWqWve-12" style="edgeStyle=orthogonalEdgeStyle;rounded=0;orthogonalLoop=1;jettySize=auto;html=1;labelBackgroundColor=none;fontColor=default;strokeColor=#0B4D6A;" edge="1" parent="1" source="7T8qWPSi5KXuXGnWqWve-13" target="7T8qWPSi5KXuXGnWqWve-15">
          <mxGeometry relative="1" as="geometry">
            <mxPoint x="931" y="567.3999633789062" as="targetPoint" />
          </mxGeometry>
        </mxCell>
        <mxCell id="7T8qWPSi5KXuXGnWqWve-13" value="CNN&amp;nbsp;&lt;br&gt;Model" style="ellipse;whiteSpace=wrap;html=1;aspect=fixed;labelBackgroundColor=none;fillColor=#09555B;strokeColor=#BAC8D3;fontColor=#EEEEEE;" vertex="1" parent="1">
          <mxGeometry x="837" y="289" width="188" height="188" as="geometry" />
        </mxCell>
        <mxCell id="7T8qWPSi5KXuXGnWqWve-14" value="" style="edgeStyle=orthogonalEdgeStyle;rounded=0;orthogonalLoop=1;jettySize=auto;html=1;labelBackgroundColor=none;fontColor=default;strokeColor=#0B4D6A;" edge="1" parent="1" source="7T8qWPSi5KXuXGnWqWve-15" target="7T8qWPSi5KXuXGnWqWve-17">
          <mxGeometry relative="1" as="geometry" />
        </mxCell>
        <mxCell id="7T8qWPSi5KXuXGnWqWve-15" value="Model Evaluation" style="rounded=0;whiteSpace=wrap;html=1;labelBackgroundColor=none;fillColor=#09555B;strokeColor=#BAC8D3;fontColor=#EEEEEE;" vertex="1" parent="1">
          <mxGeometry x="459" y="351.5" width="202" height="63" as="geometry" />
        </mxCell>
        <mxCell id="7T8qWPSi5KXuXGnWqWve-16" value="" style="edgeStyle=orthogonalEdgeStyle;rounded=0;orthogonalLoop=1;jettySize=auto;html=1;labelBackgroundColor=none;fontColor=default;strokeColor=#0B4D6A;" edge="1" parent="1" source="7T8qWPSi5KXuXGnWqWve-17" target="7T8qWPSi5KXuXGnWqWve-18">
          <mxGeometry relative="1" as="geometry" />
        </mxCell>
        <mxCell id="7T8qWPSi5KXuXGnWqWve-17" value="Model Performance&amp;nbsp;&lt;br&gt;Metrics" style="whiteSpace=wrap;html=1;rounded=0;labelBackgroundColor=none;fillColor=#09555B;strokeColor=#BAC8D3;fontColor=#EEEEEE;" vertex="1" parent="1">
          <mxGeometry x="148" y="353" width="190" height="62" as="geometry" />
        </mxCell>
        <mxCell id="7T8qWPSi5KXuXGnWqWve-18" value="To Tell Tumor, Early Stage, No Tumor" style="whiteSpace=wrap;html=1;rounded=0;labelBackgroundColor=none;fillColor=#09555B;strokeColor=#BAC8D3;fontColor=#EEEEEE;" vertex="1" parent="1">
          <mxGeometry x="114" y="533" width="258" height="94" as="geometry" />
        </mxCell>
      </root>
    </mxGraphModel>
  </diagram>
</mxfile>
